# AST/ASF file generated using VICON BodyLanguage
# -----------------------------------------------
:version 1.10
:name VICON
:units
  mass 1.0
  length 0.45
  angle deg
:documentation
   .ast/.asf automatically generated from VICON data using
   VICON BodyBuilder and BodyLanguage model FoxedUp or BRILLIANT.MOD
:root
   order TX TY TZ RX RY RZ
   axis XYZ
   position 0 0 0  
   orientation 0 0 0 
:bonedata
  begin
     id 1 
     name lhipjoint
     direction 0.57768 -0.667037 0.470475 
     length 2.36008 
     axis 0 0 0  XYZ
  end
  begin
     id 2 
     name lfemur
     direction 0.34202 -0.939693 0  
     length 6.97235  
     axis 0 0 20  XYZ
    dof rx ry rz
    limits (-160.0 20.0)
           (-70.0 70.0)
           (-60.0 70.0)
  end
  begin
     id 3 
     name ltibia
     direction 0.34202 -0.939693 0   
     length 6.93428   
     axis 0 0 20   XYZ
    dof rx
    limits (-10.0 170.0)
  end
  begin
     id 4 
     name lfoot
     direction 0.133018 -0.365463 0.921272   
     length 2.18603   
     axis -90 7.62852e-016 20   XYZ
    dof rx rz
    limits (-45.0 90.0)
           (-70.0 20.0)
  end
  begin
     id 5 
     name ltoes
     direction 1.53519e-011 -4.22055e-011 1   
     length 1.07924   
     axis -90 7.62852e-016 20   XYZ
    dof rx
    limits (-90.0 20.0)
  end
  begin
     id 6 
     name rhipjoint
     direction -0.577712 -0.667019 0.470462   
     length 2.36015  
     axis 0 0 0  XYZ 
  end
  begin
     id 7 
     name rfemur
     direction -0.34202 -0.939693 0   
     length 6.71195   
     axis 0 0 -20   XYZ
    dof rx ry rz
    limits (-160.0 20.0)
           (-70.0 70.0)
           (-70.0 60.0)
  end
  begin
     id 8 
     name rtibia
     direction -0.34202 -0.939693 0   
     length 7.04592   
     axis 0 0 -20   XYZ
    dof rx
    limits (-10.0 170.0)
 end
 begin
     id 9 
     name rfoot
     direction -0.113796 -0.312651 0.943027   
     length 2.03846  
     axis -90 -7.62852e-016 -20   XYZ
    dof rx rz
    limits (-45.0 90.0)
           (-20.0 70.0)
  end
  begin
     id 10 
     name rtoes
     direction -1.53586e-011 -4.218e-011 1   
     length 1.01562   
     axis -90 -7.62852e-016 -20   XYZ
    dof rx
    limits (-90.0 20.0)
  end
  begin
     id 11 
     name lowerback
     direction -0.0417299 0.991937 -0.119667   
     length 2.05257   
     axis 0 0 0   XYZ
    dof rx ry rz
    limits (-20.0 45.0)
           (-30.0 30.0)
           (-30.0 30.0)
  end
  begin
     id 12 
     name upperback
     direction -0.00017666 0.999999 0.00105178   
     length 2.05693   
     axis 0 0 0   XYZ
    dof rx ry rz
    limits (-20.0 45.0)
           (-30.0 30.0)
           (-30.0 30.0)
  end
  begin
     id 13 
     name thorax
     direction 0.0185169 0.998203 0.0569866   
     length 2.0932   
     axis 0 0 0   XYZ
    dof rx ry rz
    limits (-20.0 45.0)
           (-30.0 30.0)
           (-30.0 30.0)
  end
  begin
     id 14 
     name lowerneck
     direction -0.0212406 0.982645 0.184277   
     length 1.72509   
     axis 0 0 0   XYZ
    dof rx ry rz
    limits (-20.0 45.0)
           (-30.0 30.0)
           (-30.0 30.0)
  end
  begin
     id 15 
     name upperneck
     direction 0.00528579 0.965323 -0.261004   
     length 1.76294   
     axis 0 0 0   XYZ
    dof rx ry rz
    limits (-20.0 45.0)
           (-30.0 30.0)
           (-30.0 30.0)
  end
  begin
     id 16
     name head
     direction 0.00695421 0.994078 -0.108445  
     length 1.78678  
     axis 0 0 0   XYZ
    dof rx ry rz
    limits (-20.0 45.0)
           (-30.0 30.0)
           (-30.0 30.0)
  end
  begin
     id 17 
     name lclavicle
     direction 0.97277 0.211305 -0.095232  
     length 3.84823  
     axis 0 0 0   XYZ
    dof ry rz
    limits (-20.0 10.0)
           (0.0 20.0)
  end
  begin
     id 18 
     name lhumerus
     direction 1 -4.48957e-011 -1.98313e-027   
     length 4.97185   
     axis 180 -30 -90   XYZ
    dof rx ry rz
    limits (-60.0 90.0)
           (-90.0 90.0)
           (-90.0 90.0)
  end
  begin
     id 19
     name lradius
     direction 1 -4.4898e-011 7.31063e-027   
     length 3.35811   
     axis 180 -30 -90   XYZ
    dof rx
    limits (-10.0 170.0)
  end
  begin
     id 20
     name lwrist
     direction 1 -4.48938e-011 9.95048e-027   
     length 1.67905   
     axis -8.75986e-015 90 90   XYZ
    dof ry
    limits (-180.0 0.0)
 end
  begin
     id 21 
     name lhand
     direction 1 -4.4901e-011 1.9901e-026   
     length 0.622776   
     axis -1.26985e-014 90 90   XYZ
    dof rx rz
    limits (-90.0 90.0)
           (-45.0 45.0)
  end
  begin
     id 22 
     name lfingers
     direction 1 -4.48961e-011 3.98019e-026   
     length 0.502098   
     axis -2.5397e-014 90 90   XYZ
    dof rx
    limits (0.0 90.0)
  end
  begin
     id 23
     name lthumb
     direction 0.707107 -6.34933e-011 0.707107   
     length 0.720915   
     axis -90 45 2.85299e-015   XYZ
    dof rx rz
    limits (-45.0 45.0)
           (-45.0 45.0)
  end
  begin
     id 24 
     name rclavicle
     direction -0.990867 0.133739 -0.0172226   
     length 3.78845  
     axis 0 0 0   XYZ 
    dof ry rz
    limits (-10.0 20.0)
           (-20.0 0.0)
  end
  begin
     id 25 
     name rhumerus
     direction -1 -4.48972e-011 -1.99267e-027  
     length 4.96493   
     axis 180 30 90   XYZ
    dof rx ry rz
    limits (-90.0 60.0)
           (-90.0 90.0)
           (-90.0 90.0)
  end
  begin
     id 26 
     name rradius
     direction -1 -4.48969e-011 8.96093e-027   
     length 3.34929   
     axis 180 30 90   XYZ
    dof rx
    limits (-10.0 170.0)
  end
  begin
     id 27 
     name rwrist
     direction -1 -4.48953e-011 9.95048e-027   
     length 1.67464   
     axis -8.75986e-015 -90 -90   XYZ
    dof ry
    limits (-180.0 0.0)
  end
  begin
     id 28
     name rhand
     direction -1 -4.49001e-011 1.9901e-026   
     length 0.638041   
     axis -1.26985e-014 -90 -90   XYZ
    dof rx rz
    limits (-90.0 90.0)
           (-45.0 45.0)
  end
  begin
     id 29
     name rfingers
     direction -1 -4.48967e-011 3.98019e-026   
     length 0.514405   
     axis -2.5397e-014 -90 -90   XYZ
    dof rx
    limits (0.0 90.0)
  end
  begin
     id 30
     name rthumb
     direction -0.707107 -6.34904e-011 0.707107   
     length 0.738586   
     axis -90 -45 -2.85299e-015   XYZ
    dof rx rz
    limits (-45.0 45.0)
           (-45.0 45.0)
  end
:hierarchy
  begin
    root lhipjoint rhipjoint lowerback
    lhipjoint lfemur
    lfemur ltibia
    ltibia lfoot
    lfoot ltoes
    rhipjoint rfemur
    rfemur rtibia
    rtibia rfoot
    rfoot rtoes
    lowerback upperback
    upperback thorax
    thorax lowerneck lclavicle rclavicle
    lowerneck upperneck
    upperneck head
    lclavicle lhumerus
    lhumerus lradius
    lradius lwrist
    lwrist lhand lthumb
    lhand lfingers
    rclavicle rhumerus
    rhumerus rradius
    rradius rwrist
    rwrist rhand rthumb
    rhand rfingers
  end

#!OML:ASF E:\Mandelcareful walks\Project 1\Capture day 1\Session 1\Subject1.ASF
:FULLY-SPECIFIED
:DEGREES
44
root -23.8082 16.3769 -0.468427 179.066 71.8275 173.495
lowerback -7.99623 2.13895 -2.74942
upperback 2.44182 3.14591 0.175179
thorax 6.89422 1.42246 2.15858
lowerneck -7.32154 16.1082 13.7529
upperneck 24.6021 24.875 -10.5771
head 12.4262 11.8613 -2.22629
rclavicle -9.86717e-014 1.07344e-014
rhumerus -30.2198 -4.04892 -84.6518
rradius 32.5256
rwrist -11.7056
rhand -11.1869 -28.481
rfingers 7.12502
rthumb 14.8405 -57.9295
lclavicle -9.86717e-014 1.07344e-014
lhumerus -28.0852 9.84868 86.276
lradius 23.0084
lwrist 2.28247
lhand -22.5893 -12.8322
lfingers 7.12502
lthumb 3.83976 17.113
rfemur -3.51239 6.57029 14.1639
rtibia 24.8271
rfoot -43.9813 -33.6771
rtoes 19.8707
lfemur -13.5787 -10.635 -13.5565
ltibia 29.8961
lfoot -27.9672 14.2986
ltoes 17.2741
45
root -23.8135 16.3764 -0.469952 178.714 71.8214 173.146
lowerback -7.92456 2.10296 -2.89037
upperback 2.43697 3.11169 0.159548
thorax 6.84356 1.40132 2.21293
lowerneck -7.19683 16.1346 13.7658
upperneck 24.5717 24.9325 -10.5964
head 12.4031 11.8946 -2.23458
rclavicle 9.52179e-014 8.34896e-015
rhumerus -30.4005 -4.34715 -84.5234
rradius 32.1771
rwrist -11.3455
rhand -11.1163 -28.981
rfingers 7.12502
rthumb 14.9084 -58.4245
lclavicle 9.52179e-014 8.34896e-015
lhumerus -28.0565 9.43784 86.4793
lradius 23.4136
lwrist 2.93657
lhand -22.3804 -12.8129
lfingers 7.12502
lthumb 4.0414 17.1285
rfemur -3.50654 6.64824 14.0438
rtibia 24.849
rfoot -44.2053 -33.5824
rtoes 20.3193
lfemur -13.5721 -10.6676 -13.6834
ltibia 29.8866
lfoot -27.9417 14.4497
ltoes 18.4736
46
root -23.818 16.3771 -0.466741 179.1 71.9154 173.493
lowerback -7.91664 2.08122 -2.89996
upperback 2.40567 3.07861 0.216533
thorax 6.8039 1.38441 2.27234
lowerneck -7.18794 16.1756 13.7663
upperneck 24.6957 25.006 -10.5258
head 12.45 11.9321 -2.19282
rclavicle -8.38871e-014 5.56597e-015
rhumerus -30.4589 -4.60624 -84.4162
rradius 31.5963
rwrist -10.9695
rhand -11.1182 -29.5579
rfingers 7.12502
rthumb 14.9066 -59.0015
lclavicle -8.38871e-014 5.56597e-015
lhumerus -28.0718 9.09716 86.6353
lradius 23.8089
lwrist 3.39779
lhand -22.021 -12.9694
lfingers 7.12502
lthumb 4.38849 16.9651
rfemur -3.61596 7.15741 14.2451
rtibia 24.8697
rfoot -44.6494 -33.814
rtoes 20.6041
lfemur -13.645 -10.5872 -13.5337
ltibia 29.8681
lfoot -27.9613 14.488
ltoes 18.4985
47
root -23.8171 16.3784 -0.464768 179.745 71.9919 174.188
lowerback -7.9056 2.06106 -2.79688
upperback 2.41592 3.03507 0.297973
thorax 6.81151 1.36523 2.29408
lowerneck -7.12233 16.2098 13.8434
upperneck 24.6645 25.0697 -10.5953
head 12.4567 11.9633 -2.21852
rclavicle -1.59028e-015 -1.78906e-015
rhumerus -30.4991 -5.03989 -84.279
rradius 31.0314
rwrist -10.4335
rhand -10.8564 -29.8716
rfingers 7.12502
rthumb 15.1588 -59.2964
lclavicle -1.59028e-015 -1.78906e-015
lhumerus -28.0701 8.65302 86.8297
lradius 24.1942
lwrist 3.92536
lhand -21.958 -13.0279
lfingers 7.12502
lthumb 4.44928 16.9054
rfemur -3.59628 7.5174 14.5573
rtibia 24.884
rfoot -44.9685 -33.9436
rtoes 20.756
lfemur -13.6223 -10.6082 -13.278
ltibia 29.86
lfoot -28.1475 14.3086
ltoes 17.0142
48
root -23.814 16.3797 -0.466012 179.802 72.0295 174.307
lowerback -7.87612 2.0445 -2.82212
upperback 2.45333 3.01474 0.312417
thorax 6.83355 1.35313 2.32042
lowerneck -7.07784 16.2349 13.9014
upperneck 24.6143 25.0919 -10.6091
head 12.442 11.9782 -2.23061
rclavicle -2.45499e-014 -7.55382e-015
rhumerus -30.6009 -5.57921 -84.1188
rradius 30.6176
rwrist -9.86285
rhand -10.8082 -29.7807
rfingers 7.12502
rthumb 15.2052 -59.202
lclavicle -2.45499e-014 -7.55382e-015
lhumerus -28.0087 8.01238 87.0918
lradius 24.5664
lwrist 4.54504
lhand -21.8938 -13.116
lfingers 7.12502
lthumb 4.51133 16.816
rfemur -3.48111 7.60518 14.6261
rtibia 24.8495
rfoot -45.0483 -33.9197
rtoes 20.8177
lfemur -13.5482 -10.5083 -13.2685
ltibia 29.8947
lfoot -28.1314 14.4597
ltoes 18.7084
49
root -23.8173 16.3802 -0.473129 179.069 72.0047 173.521
lowerback -7.87078 2.01449 -2.99701
upperback 2.46145 3.0002 0.211514
thorax 6.83705 1.34085 2.31067
lowerneck -7.04971 16.2362 13.9042
upperneck 24.6375 25.0733 -10.5286
head 12.4303 11.9782 -2.20998
rclavicle -8.8484e-014 1.0138e-014
rhumerus -30.7123 -6.03584 -83.9777
rradius 30.199
rwrist -9.38392
rhand -11.1338 -29.6602
rfingers 7.12502
rthumb 14.8916 -59.105
lclavicle -8.8484e-014 1.0138e-014
lhumerus -27.9256 7.47458 87.3237
lradius 24.8546
lwrist 4.95992
lhand -21.64 -13.9991
lfingers 7.12502
lthumb 4.75643 15.9275
rfemur -3.48355 7.14134 14.248
rtibia 24.804
rfoot -44.6053 -33.7365
rtoes 20.3217
lfemur -13.6006 -10.4189 -13.5926
ltibia 29.9314
lfoot -28.0619 14.536
ltoes 19.2868
50
root -23.8216 16.376 -0.47479 179.43 72.0788 173.93
lowerback -7.79062 2.03398 -2.87672
upperback 2.45961 3.00844 0.247037
thorax 6.79238 1.3503 2.27784
lowerneck -7.08315 16.2453 13.8003
upperneck 24.6251 25.0687 -10.4573
head 12.4042 11.9728 -2.17228
rclavicle -6.82328e-014 2.76311e-014
rhumerus -30.7955 -6.35439 -83.8421
rradius 29.6591
rwrist -9.13406
rhand -11.403 -29.5871
rfingers 7.12502
rthumb 14.6322 -59.0508
lclavicle -6.82328e-014 2.76311e-014
lhumerus -27.8675 7.06616 87.573
lradius 25.1248
lwrist 5.21434
lhand -21.6177 -15.2591
lfingers 7.12502
lthumb 4.77791 14.667
rfemur -3.47126 7.42769 14.4174
rtibia 24.7737
rfoot -44.8804 -33.8053
rtoes 20.5154
lfemur -13.6027 -10.4925 -13.4527
ltibia 29.9568
lfoot -28.1229 14.5607
ltoes 18.7343
